<?xml version="1.0" standalone="no"?>
<svg xmlns:xlink="http://www.w3.org/1999/xlink" id="wave" style="transform:rotate(0deg); transition: 0.3s" viewBox="0 0 1440 490" version="1.1" xmlns="http://www.w3.org/2000/svg"><defs><linearGradient id="sw-gradient-0" x1="0" x2="0" y1="1" y2="0"><stop stop-color="rgba(0, 207.077, 214.338, 1)" offset="0%"/><stop stop-color="rgba(0, 0, 0, 1)" offset="100%"/></linearGradient></defs><path style="transform:translate(0, 0px); opacity:1" fill="url(#sw-gradient-0)" d="M0,441L60,408.3C120,376,240,310,360,294C480,278,600,310,720,334.8C840,359,960,376,1080,343C1200,310,1320,229,1440,163.3C1560,98,1680,49,1800,57.2C1920,65,2040,131,2160,204.2C2280,278,2400,359,2520,383.8C2640,408,2760,376,2880,367.5C3000,359,3120,376,3240,343C3360,310,3480,229,3600,212.3C3720,196,3840,245,3960,269.5C4080,294,4200,294,4320,245C4440,196,4560,98,4680,49C4800,0,4920,0,5040,73.5C5160,147,5280,294,5400,318.5C5520,343,5640,245,5760,220.5C5880,196,6000,245,6120,285.8C6240,327,6360,359,6480,367.5C6600,376,6720,359,6840,359.3C6960,359,7080,376,7200,359.3C7320,343,7440,294,7560,285.8C7680,278,7800,310,7920,285.8C8040,261,8160,180,8280,130.7C8400,82,8520,65,8580,57.2L8640,49L8640,490L8580,490C8520,490,8400,490,8280,490C8160,490,8040,490,7920,490C7800,490,7680,490,7560,490C7440,490,7320,490,7200,490C7080,490,6960,490,6840,490C6720,490,6600,490,6480,490C6360,490,6240,490,6120,490C6000,490,5880,490,5760,490C5640,490,5520,490,5400,490C5280,490,5160,490,5040,490C4920,490,4800,490,4680,490C4560,490,4440,490,4320,490C4200,490,4080,490,3960,490C3840,490,3720,490,3600,490C3480,490,3360,490,3240,490C3120,490,3000,490,2880,490C2760,490,2640,490,2520,490C2400,490,2280,490,2160,490C2040,490,1920,490,1800,490C1680,490,1560,490,1440,490C1320,490,1200,490,1080,490C960,490,840,490,720,490C600,490,480,490,360,490C240,490,120,490,60,490L0,490Z"/></svg>