<?xml version="1.0" standalone="no"?>
<svg xmlns:xlink="http://www.w3.org/1999/xlink" id="wave" style="transform:rotate(0deg); transition: 0.3s" viewBox="0 0 1440 490" version="1.1" xmlns="http://www.w3.org/2000/svg"><defs><linearGradient id="sw-gradient-0" x1="0" x2="0" y1="1" y2="0"><stop stop-color="rgba(26.647, 218.892, 179.819, 1)" offset="0%"/><stop stop-color="rgba(11, 114.489, 255, 1)" offset="100%"/></linearGradient></defs><path style="transform:translate(0, 0px); opacity:1" fill="url(#sw-gradient-0)" d="M0,0L80,73.5C160,147,320,294,480,343C640,392,800,343,960,318.5C1120,294,1280,294,1440,318.5C1600,343,1760,392,1920,351.2C2080,310,2240,180,2400,171.5C2560,163,2720,278,2880,343C3040,408,3200,425,3360,408.3C3520,392,3680,343,3840,310.3C4000,278,4160,261,4320,277.7C4480,294,4640,343,4800,302.2C4960,261,5120,131,5280,106.2C5440,82,5600,163,5760,171.5C5920,180,6080,114,6240,114.3C6400,114,6560,180,6720,220.5C6880,261,7040,278,7200,302.2C7360,327,7520,359,7680,326.7C7840,294,8000,196,8160,204.2C8320,212,8480,327,8640,326.7C8800,327,8960,212,9120,196C9280,180,9440,261,9600,318.5C9760,376,9920,408,10080,351.2C10240,294,10400,147,10560,106.2C10720,65,10880,131,11040,138.8C11200,147,11360,98,11440,73.5L11520,49L11520,490L11440,490C11360,490,11200,490,11040,490C10880,490,10720,490,10560,490C10400,490,10240,490,10080,490C9920,490,9760,490,9600,490C9440,490,9280,490,9120,490C8960,490,8800,490,8640,490C8480,490,8320,490,8160,490C8000,490,7840,490,7680,490C7520,490,7360,490,7200,490C7040,490,6880,490,6720,490C6560,490,6400,490,6240,490C6080,490,5920,490,5760,490C5600,490,5440,490,5280,490C5120,490,4960,490,4800,490C4640,490,4480,490,4320,490C4160,490,4000,490,3840,490C3680,490,3520,490,3360,490C3200,490,3040,490,2880,490C2720,490,2560,490,2400,490C2240,490,2080,490,1920,490C1760,490,1600,490,1440,490C1280,490,1120,490,960,490C800,490,640,490,480,490C320,490,160,490,80,490L0,490Z"/></svg>