<?xml version="1.0" standalone="no"?>
<svg xmlns:xlink="http://www.w3.org/1999/xlink" id="wave" style="transform:rotate(0deg); transition: 0.3s" viewBox="0 0 1440 490" version="1.1" xmlns="http://www.w3.org/2000/svg"><defs><linearGradient id="sw-gradient-0" x1="0" x2="0" y1="1" y2="0"><stop stop-color="rgba(26.647, 218.892, 179.819, 1)" offset="0%"/><stop stop-color="rgba(11, 147.55, 255, 1)" offset="100%"/></linearGradient></defs><path style="transform:translate(0, 0px); opacity:1" fill="url(#sw-gradient-0)" d="M0,343L120,359.3C240,376,480,408,720,359.3C960,310,1200,180,1440,122.5C1680,65,1920,82,2160,122.5C2400,163,2640,229,2880,212.3C3120,196,3360,98,3600,65.3C3840,33,4080,65,4320,81.7C4560,98,4800,98,5040,114.3C5280,131,5520,163,5760,147C6000,131,6240,65,6480,40.8C6720,16,6960,33,7200,106.2C7440,180,7680,310,7920,351.2C8160,392,8400,343,8640,277.7C8880,212,9120,131,9360,147C9600,163,9840,278,10080,334.8C10320,392,10560,392,10800,326.7C11040,261,11280,131,11520,106.2C11760,82,12000,163,12240,187.8C12480,212,12720,180,12960,187.8C13200,196,13440,245,13680,277.7C13920,310,14160,327,14400,302.2C14640,278,14880,212,15120,163.3C15360,114,15600,82,15840,114.3C16080,147,16320,245,16560,294C16800,343,17040,343,17160,343L17280,343L17280,490L17160,490C17040,490,16800,490,16560,490C16320,490,16080,490,15840,490C15600,490,15360,490,15120,490C14880,490,14640,490,14400,490C14160,490,13920,490,13680,490C13440,490,13200,490,12960,490C12720,490,12480,490,12240,490C12000,490,11760,490,11520,490C11280,490,11040,490,10800,490C10560,490,10320,490,10080,490C9840,490,9600,490,9360,490C9120,490,8880,490,8640,490C8400,490,8160,490,7920,490C7680,490,7440,490,7200,490C6960,490,6720,490,6480,490C6240,490,6000,490,5760,490C5520,490,5280,490,5040,490C4800,490,4560,490,4320,490C4080,490,3840,490,3600,490C3360,490,3120,490,2880,490C2640,490,2400,490,2160,490C1920,490,1680,490,1440,490C1200,490,960,490,720,490C480,490,240,490,120,490L0,490Z"/></svg>